<?xml version="1.0" standalone="no"?>
<!DOCTYPE svg PUBLIC "-//W3C//DTD SVG 20010904//EN"
 "http://www.w3.org/TR/2001/REC-SVG-20010904/DTD/svg10.dtd">
<svg version="1.0" xmlns="http://www.w3.org/2000/svg"
 width="1024.000000pt" height="1024.000000pt" viewBox="0 0 1024.000000 1024.000000"
 preserveAspectRatio="xMidYMid meet">
<metadata>
Created by Simon Maskelyne
</metadata>
<g transform="translate(0.000000,1024.000000) scale(0.100000,-0.100000)"
fill="#000000" stroke="none">
<path d="M1244 9885 c-245 -45 -436 -146 -611 -324 -160 -162 -260 -361 -301
-596 -14 -78 -6 -336 12 -405 9 -36 19 -76 22 -90 7 -34 64 -170 83 -200 9
-14 22 -36 29 -50 27 -53 113 -158 189 -231 155 -148 326 -236 548 -285 68
-14 146 -17 510 -20 237 -1 432 -3 435 -3 3 -1 6 -1435 7 -3188 0 -2421 3
-3204 12 -3253 7 -36 15 -78 17 -94 18 -96 107 -286 182 -390 135 -185 343
-335 565 -406 158 -51 26 -49 3107 -49 3104 0 2931 -3 3099 50 212 67 428 222
558 399 240 329 281 760 107 1129 -171 363 -548 619 -932 633 -35 1 -65 5 -68
9 -2 4 -4 1444 -4 3200 -1 3101 -1 3197 -20 3284 -97 460 -445 798 -903 880
-71 12 -526 14 -3327 14 -2607 -1 -3259 -4 -3316 -14z"/>
</g>
</svg>
